<svg width="103" height="147" viewBox="0 0 103 147" fill="none" xmlns="http://www.w3.org/2000/svg">
<path d="M31.2313 35.6951C32.5647 31.2285 33.6313 27.7951 34.4313 25.3951C35.298 22.9285 36.1313 20.7285 36.9313 18.7951C37.7313 16.8618 38.6313 14.9951 39.6313 13.1951C40.698 11.3951 41.8313 9.76179 43.0313 8.29512C44.298 6.76179 45.6313 5.56179 47.0313 4.69512C48.4313 3.82845 49.898 3.39512 51.4313 3.39512C52.9647 3.39512 54.5647 3.99512 56.2313 5.19512C58.898 11.8618 60.5313 16.3285 61.1313 18.5951C61.9313 21.9285 62.6647 26.6285 63.3313 32.6951C63.9313 31.1618 64.598 29.5618 65.3313 27.8951C66.1314 26.1618 66.898 24.4285 67.6313 22.6951C69.698 18.2951 70.998 14.9618 71.5313 12.6951C72.998 8.02846 76.0314 4.52846 80.6314 2.19512C84.6314 0.195124 88.3647 -0.438211 91.8313 0.295121C93.2313 0.561788 94.198 1.12845 94.7313 1.99512C95.3313 2.86179 95.3313 3.76179 94.7313 4.69512C94.198 5.62846 93.998 6.52846 94.1313 7.39513C94.3313 8.19512 94.498 9.16179 94.6313 10.2951C94.8313 13.3618 94.298 16.0951 93.0313 18.4951C91.7647 20.8285 90.4647 23.7618 89.1313 27.2951C87.798 30.7618 86.4314 34.4618 85.0313 38.3951C83.698 42.3285 82.3313 46.3285 80.9313 50.3951C79.5313 54.4618 78.1647 58.1618 76.8314 61.4951C73.898 69.1618 71.498 73.3951 69.6313 74.1951C67.098 75.7285 65.2313 76.6285 64.0313 76.8951C62.498 77.1618 60.3313 77.1618 57.5313 76.8951C55.798 76.7618 54.298 74.5285 53.0313 70.1951C52.298 67.8618 51.6313 64.6285 51.0313 60.4951C49.9647 53.2951 49.2313 49.3285 48.8313 48.5951C46.1647 57.2618 44.2647 62.7285 43.1313 64.9951C42.0647 67.2618 41.2313 68.7618 40.6313 69.4951C40.098 70.2285 39.4313 71.1951 38.6313 72.3951C37.7647 74.7951 35.698 76.5618 32.4313 77.6951C29.6313 78.7618 27.098 78.9285 24.8313 78.1951C22.3647 77.3951 21.6313 75.8618 22.6313 73.5951C23.3647 65.5951 26.2313 52.9618 31.2313 35.6951Z" fill="black"/>
<path d="M81.2528 81.2149C84.5473 81.6092 86.0913 83.0466 85.8848 85.5271C87.4768 85.7743 88.5282 86.0687 89.0391 86.4105C89.5679 86.8164 90.0004 87.2493 90.3366 87.7091C90.737 88.1509 91.1464 88.6249 91.5648 89.1309C91.9831 89.637 92.4591 90.473 92.9927 91.6391C93.5264 92.8051 93.9996 94.1265 94.4124 95.6033C94.8894 97.062 95.238 98.5567 95.4582 100.087C95.6964 101.682 95.638 103.083 95.2832 104.29C94.5064 107.206 92.2834 108.416 88.6141 107.919C88.7142 108.03 88.641 108.015 88.3945 107.877L86.515 107.468L85.4598 107.036C85.049 106.804 82.8125 106.357 78.7504 105.692C75.8053 105.062 72.8833 104.391 69.9844 103.678C65.0365 102.569 61.8808 101.928 60.5173 101.756C62.3654 103.662 64.858 105.769 67.995 108.076C73.8583 112.459 77.4226 115.305 78.688 116.612C79.9535 117.92 80.7632 118.836 81.1174 119.36C81.4895 119.948 81.6921 120.549 81.7252 121.163C81.8226 121.758 81.8326 122.413 81.7552 123.127L81.4652 125.804C81.3823 127.489 79.7537 128.844 76.5793 129.87C73.4512 130.813 70.8962 130.835 68.9141 129.936C59.7046 126.211 52.7927 121.048 48.1784 114.446C46.7155 112.433 45.3631 110.319 44.1212 108.105C44.6872 111.615 43.3464 115.486 40.0988 119.716C37.4601 123.153 34.5277 125.911 31.3016 127.99C28.0933 130.133 25.7122 131.768 24.1582 132.894C22.6683 134.003 21.456 134.619 20.5212 134.742C19.5402 134.947 18.6814 134.598 17.9448 133.697C17.1619 132.877 16.2137 131.343 15.1002 129.093C14.6024 128.055 15.2584 125.449 17.0679 121.274C17.875 119.456 18.7515 117.516 19.6973 115.451C20.7074 113.369 21.6211 111.314 22.4386 109.286C24.3793 104.59 25.1985 101.453 24.8962 99.8766C24.8603 99.7482 24.8527 99.4734 24.8734 99.0523L20.055 98.5303C17.6849 98.2237 15.1775 97.9209 12.5327 97.6219C9.96999 97.3692 7.57821 96.861 5.35729 96.0974C3.45258 94.484 2.26069 92.3251 1.78163 89.6209C1.25908 86.5136 1.92258 84.1822 3.77213 82.6268C5.583 81.4284 11.7218 80.8544 22.1886 80.9051C29.5148 80.8645 35.9346 80.8004 41.4479 80.7128C46.9613 80.6253 51.5219 80.5964 55.1298 80.6261C58.8019 80.638 61.6317 80.6083 63.6193 80.5373C65.6711 80.4482 67.6587 80.3772 69.5821 80.3241C74.0605 80.2489 77.9508 80.5458 81.2528 81.2149Z" fill="black"/>
</svg>
