<svg width="450" height="357" viewBox="0 0 450 357" fill="none" xmlns="http://www.w3.org/2000/svg">
<path fill-rule="evenodd" clip-rule="evenodd" d="M301.014 131.494C297.145 139.059 293.057 146.423 288.93 153.85C286.744 157.782 279.697 174.044 277.877 174.665C275.918 175.334 263.912 168.274 260.466 166.891C254.343 164.433 248.525 162.106 242.129 160.591C234.967 158.894 227.749 157.643 220.32 158.273C217.067 158.55 211.681 159.337 214.915 154.766C217.272 151.433 219.555 148.364 222.757 145.956C225.087 144.203 228.503 140.988 231.232 139.817C234.094 138.588 238.316 138.86 241.393 138.933C244.718 139.012 260.57 143.958 261.442 138.802C263.059 140.274 264.001 139.705 265.853 140.423C267.942 141.233 269.244 142.805 271.317 143.754C272.662 144.37 275.142 146.806 276.638 146.821C278.626 146.841 279.161 145.194 280.589 143.979C283.787 141.256 288.046 139.463 291.517 137.097C294.573 135.013 297.483 132.841 301.014 131.494ZM266.188 71.6971C265.916 75.1506 266.848 78.3595 266.826 81.913C266.816 83.4636 266.746 85.0137 267.217 86.5077C267.639 87.8469 267.344 90.2528 267.568 91.6551C263.613 90.4508 256.263 88.6649 252.224 90.2888C248.363 91.8413 247.878 99.0205 247.741 102.512C247.649 104.892 248.705 108.558 247.905 110.837C247.531 111.899 247.528 112.242 247.551 112.338L247.554 112.348C247.478 112.309 247.168 112.31 246.075 113.099C244.991 113.88 243.697 114.311 242.625 115.174C240.677 116.746 240.343 118.527 239.382 120.805C238.448 123.017 235.961 124.983 233.184 124.903C235.416 120.857 238.515 117.079 236.737 112.327C235.395 108.74 237.747 104.531 239.597 101.124C240.21 99.996 247.001 91.3512 243.992 90.7417C242.038 90.3456 237.553 99.5222 236.694 101.124C234.301 99.5063 233.226 97.5119 235.068 95.0748C236.483 93.2032 238.22 91.6028 239.597 89.665C241.833 86.5198 244.012 82.7657 246.668 79.972C251.331 75.0665 259.473 71.7271 266.188 71.6971ZM247.554 112.348C247.58 112.366 247.569 112.384 247.558 112.357L247.554 112.348ZM328.865 66.3373C331.846 69.1924 335.615 71.5605 338.495 74.5568C341.016 77.1798 344.411 81.5918 345.609 85.096C339.464 86.2804 329.253 89.9081 326.806 96.357C317.249 87.5838 313.552 103.623 311.656 110.33C306.063 107.91 307.178 99.8521 307.252 95.1477C307.31 91.4159 309.583 86.9988 304.164 86.693C300.115 86.4654 296.182 88.1145 292.53 89.6587C287.973 91.5856 283.192 94.4683 279.512 97.7792L275.677 94.7936C281.968 91.2615 285.247 84.508 288.93 78.3242C290.104 76.3528 291.673 74.1605 292.53 72.0295C293.123 70.5559 293.54 67.5814 294.189 66.2712C295.211 64.2114 305.193 63.6443 307.837 63.1135C314.818 61.7123 323.161 60.8725 328.865 66.3373Z" fill="#0E0E0E"/>
<path fill-rule="evenodd" clip-rule="evenodd" d="M327.275 112.113C329.853 111.981 332.42 112.557 334.999 112.306C332.76 110.356 330.522 108.406 328.283 106.457C327.294 108.194 327.222 110.169 327.275 112.113ZM266.101 72.0295C259.427 72.0588 251.286 75.4111 246.65 80.3069C244.193 82.9016 242.164 86.3857 240.086 89.3009C238.693 91.2567 237.332 93.1443 235.641 94.8631C233.174 97.368 233.881 97.9408 236.659 99.8271C237.539 98.179 242.202 89.3678 244.156 89.7641C247.126 90.3667 241.391 99.6742 240.764 100.834C238.909 104.264 235.913 109.056 237.259 112.674C239.035 117.45 236.46 120.172 234.223 124.242C236.572 124.31 236.803 123.394 237.613 121.391C238.652 118.817 239.786 116.666 241.985 114.886C243.687 113.508 246.471 112.928 247.271 111.264C248.26 109.207 247.639 105.145 247.72 102.856C247.841 99.3792 247.85 91.1592 251.682 89.6144C255.696 87.9956 262.914 89.5213 266.839 90.7203C266.349 87.656 264.803 85.6544 264.824 82.2493C264.847 78.6849 265.829 75.5047 266.101 72.0295ZM214.829 128.896C218.321 127.79 221.63 126.626 225.222 125.873C228.981 125.084 229.232 124.182 231.351 120.958C232.957 118.515 234.906 116.611 234.451 113.618C234.159 111.699 233.108 110.764 233.424 108.605C233.62 107.267 234.244 105.807 234.696 104.534C235.249 102.974 236.395 101.203 233.729 101.126C232.257 101.083 232.185 101.86 231.189 103.164C229.351 105.573 227.235 107.76 225.278 110.07C221.88 114.081 218.277 118.349 214.483 122.061C210.308 126.146 206.704 131.073 204.005 136.303C203.506 137.269 200.475 142.957 201.769 144.072C202.956 145.097 209.56 142.708 210.765 142.428C215.963 141.221 221.863 140.791 226.774 138.599C229.276 137.483 234.798 136.15 236.774 134.422C238.611 132.816 238.528 128.926 237.462 126.661C234.478 128.518 212.906 135.522 214.829 128.896ZM279.776 96.9718C283.259 93.8253 287.377 91.3013 291.678 89.4309C295.525 87.758 300.305 85.8933 304.585 86.1838C309.918 86.545 307.689 90.8407 307.67 94.4987C307.645 99.3525 305.518 106.345 311.313 108.863C313.206 102.142 317.193 86.2494 326.746 95.0561C329.188 88.5938 337.896 86.4067 344.027 85.2199C342.916 81.955 339.54 78.9996 337.2 76.5489C334.273 73.4833 331.962 69.8903 329.03 66.8827C323.237 60.9434 312.742 62.8507 305.408 64.3313C302.96 64.825 295.863 65.4455 294.677 67.2433C293.933 68.3709 294.349 71.1255 293.798 72.5042C293.038 74.4039 291.74 76.1647 290.699 77.9192C286.9 84.321 283.035 90.7643 276.534 94.4299L279.776 96.9718ZM301.035 131.46C297.595 132.78 295.065 134.987 292.014 136.845C288.316 139.099 283.978 141.209 280.658 143.993C279.444 145.011 278.761 146.769 277.084 146.883C275.626 146.982 273.404 145.288 272.111 144.696C269.942 143.7 267.87 142.192 265.69 141.304C263.899 140.575 263.106 140.724 261.556 139.306C260.687 144.48 244.872 139.643 241.554 139.564C238.484 139.492 234.273 139.856 231.417 141.089C228.695 142.264 226.567 144.851 224.237 146.614C221.043 149.031 217.996 151.476 215.644 154.821C212.418 159.409 217.285 158.111 220.531 157.834C227.94 157.2 235.146 158.965 242.289 160.668C248.672 162.19 254.977 164.016 261.088 166.484C264.525 167.872 268.143 169.148 271.375 170.952C273.079 171.904 275.843 174.233 277.799 173.561C279.592 172.946 281.379 167.805 282.466 165.752C284.578 161.767 286.799 157.848 288.979 153.902C293.097 146.447 297.175 139.054 301.035 131.46ZM258.709 230.127C260.829 228.909 264.285 229.237 266.629 228.727C269.277 228.151 271.941 227.211 274.466 226.232C277.024 225.241 279.44 224.227 281.777 222.986C282.846 222.42 284.271 221.861 285.258 221.074C286.054 220.44 286.344 219.261 287.079 218.686C288.993 217.184 289.556 218.126 289.813 215.23C290.091 212.083 288.326 210.301 286.128 207.947C284.161 205.839 281.605 204.018 279.133 202.536C278.04 201.88 276.871 201.142 275.755 200.517C274.067 199.569 271.805 197.993 270.919 200.027C272.764 200.498 273.171 202.855 271.505 203.701C270.591 204.166 269.206 203.483 268.175 203.978C266.583 204.741 265.052 206.871 263.689 208.017C259.217 211.783 254.939 213.195 249.085 213.497C236.852 214.128 224.042 212.733 212.045 210.92C208.957 210.453 205.875 210.959 202.758 210.847C199.726 210.739 196.564 210.076 193.584 209.564C187.842 208.577 181.79 207.766 176.138 206.315C169.302 204.559 162.443 202.289 156.025 199.349C149.869 196.528 142.911 191.867 135.996 191.508C138.947 194.397 143.368 195.51 146.917 197.413C149.818 198.967 154.355 199.966 156.188 202.527C157.381 204.194 157.979 207.257 158.88 209.212C159.877 211.375 160.797 213.573 161.719 215.769C162.646 217.979 163.612 220.189 164.364 222.465C164.83 223.876 165.031 226.803 166.132 227.769C167.887 229.309 173.764 229.993 176.13 230.505C180.548 231.463 185.587 231.335 190.094 231.401C191.956 231.429 193.833 231.683 195.612 231.717C198.111 231.765 197.873 231.333 197.837 229.163C197.817 227.861 197.843 225.491 199.585 226.564C200.772 227.296 199.955 230.534 199.736 231.684C209.682 232.675 220.06 233.173 229.959 232.842C239.695 232.516 249.093 231.26 258.709 230.127ZM303.629 207.294C305.384 194.691 307.523 181.878 309.916 169.438C312.336 156.868 315.244 144.411 318.516 131.888C316.355 131.371 314.194 130.855 312.033 130.338C311.953 132.977 311.06 135.269 310.68 137.895C310.155 141.521 309.151 145.041 308.55 148.655C307.409 155.524 305.293 162.245 303.43 168.943C301.531 175.771 300.896 182.806 299.151 189.669C297.713 195.323 296.978 201.551 296.175 207.364C294.227 221.465 291.45 235.594 289.338 249.702C287.356 262.93 287.158 276.426 287.272 289.777C287.342 297.928 288.585 306.056 288.52 314.218C288.504 316.235 288.674 318.246 288.779 320.261C288.853 321.682 288.089 325.622 288.737 326.812C289.147 327.566 290.907 328.261 291.531 329.308C292.517 330.963 292.724 332.943 294.308 334.196C295.592 329.018 294.985 322.185 294.705 316.902C294.433 311.811 294.96 306.549 295.064 301.38C295.267 291.24 295.804 281.248 296.324 271.103C296.894 259.978 298.514 248.581 300.097 237.539C301.537 227.499 302.498 217.28 303.629 207.294ZM256.653 49.2431C255.957 49.1781 255.261 49.1138 254.565 49.0488C254.669 50.5153 254.359 52.8903 255.393 53.6554C256.176 54.2351 257.762 54.0446 258.712 54.23C261.825 54.8384 265.432 55.3474 268.521 54.2389C269.722 53.8083 268.951 53.1336 270.604 53.4139C272.596 53.7522 271.868 54.0676 272.443 55.3098C272.886 56.2686 273.114 57.9001 273.617 59.0513C274.29 60.5917 275.654 63.3483 275.071 65.127C274.504 66.8559 272.39 67.3783 271.491 69.3367C270.823 70.7924 270.981 72.9087 270.633 74.5122C270.17 76.6508 269.584 78.7811 269.326 80.9592C269 83.7031 269.112 86.9228 272.512 87.3483C275.667 87.7439 277.923 86.7297 280.039 84.4319C284.08 80.045 288.694 73.8522 291.068 68.3339C291.345 67.6892 292.028 66.6132 291.933 65.9233C291.745 64.5581 291.663 65.9399 291.23 64.9919C290.817 64.0854 290.169 63.2629 289.788 62.257C288.417 58.6429 287.445 54.855 286.896 51.0294C286.646 49.2966 286.563 47.5848 286.606 45.8348C286.62 45.2372 286.978 43.4433 286.764 43.0343C286.546 42.6196 285.409 42.4284 285.055 42.0169C284.398 41.2543 283.269 39.1011 282.542 38.5303C281.646 37.8289 279.643 38.3844 279.279 36.9892C278.697 34.7563 292.467 31.1193 286.034 28.1398C281.231 25.9152 273.865 37.1606 272.185 28.3118C271.894 26.779 272.448 24.6984 271.776 23.2936C271.033 21.7411 269.01 21.1608 267.597 20.4052C265.794 19.442 263.973 18.452 262.221 17.397C261.019 16.6739 259.287 14.7538 258.008 14.578C258.512 17.1842 257.546 19.7675 257.53 22.3686C260.301 21.6188 262.208 21.6029 264.943 22.9362C266.246 23.5708 271.153 27.1721 268.667 28.9042C266.652 27.7136 264.497 26.6809 262.252 25.9808C261.366 25.7043 260.261 25.3284 259.319 25.3093C257.132 25.2653 257.44 25.4941 256.619 27.1428C255.827 28.731 255.998 32.8731 254.26 33.8873C252.464 34.936 253.849 33.4682 252.315 33.8071C251.44 34.0007 250.487 34.6512 249.686 35.0188C250.783 36.2101 252.998 37.2975 253.726 38.6207C254.788 40.5497 254.42 44.5397 254.586 46.6502C255.976 46.1527 257.439 46.1323 258.848 45.7628C260.173 45.415 262.009 43.9096 262.148 46.1228C262.302 48.5888 258.403 49.2431 256.653 49.2431ZM274.744 114.171C274.852 112.04 274.971 109.91 275.208 107.788C275.368 106.363 276.721 102.229 275.956 100.978C275.125 99.6162 272.337 99.5296 270.995 99.2028C268.424 98.5759 265.957 98.0624 263.344 97.6483C260.94 97.268 258.675 97.1878 256.253 97.0775C253.615 96.9584 252.961 96.2583 252.378 99.1652C251.92 101.451 251.305 103.832 251.219 106.172C251.139 108.369 251.802 110.276 249.625 111.756C254.406 111.756 260.632 107.5 264.994 111.306C271.234 116.748 260.375 118.316 257.511 119.517C259.892 120.674 263.425 121.583 264.546 124.225C265.803 127.187 263.979 128.446 261.187 128.683C261.449 129.825 262.454 130.567 262.754 131.939C263.192 133.952 261.77 133.286 263.585 134.843C265.975 136.892 270.895 138.262 273.826 139.568C274.512 139.875 275.207 140.163 275.909 140.432C277.007 141.409 277.818 141.223 278.342 139.873C279.845 138.922 281.183 136.798 282.517 135.563C285.485 132.815 288.76 130.403 292.286 128.418C290.824 127.813 289.076 129.181 287.673 128.515C286.539 127.977 286.966 126.998 286.288 126.265C286.56 125.308 286.272 124.959 285.425 125.215C285.002 125.261 284.608 125.189 284.244 125.001C283.534 124.121 283.216 123.834 283.169 122.476C283.119 121.036 283.953 120.527 284.273 119.374C285.314 118.665 285.29 117.968 284.202 117.285C283.755 116.554 283.511 115.761 283.471 114.905C283.264 111.728 286.163 110.448 288.375 108.767C284.415 108.332 284.566 103.688 287.306 101.657C290.146 99.5525 296.159 100.414 299.593 100.889C300.307 100.987 302.236 101.908 302.958 101.321C303.401 100.961 303.088 97.9178 303.109 97.3808C303.155 96.1614 303.452 94.7077 303.257 93.4947C302.851 90.9547 303.712 92.234 301.884 92.1632C297.532 91.9944 291.991 95.7932 288.163 97.584C283.877 99.5888 281.124 99.8972 281.079 104.868C281.036 109.574 279.716 114.264 279.14 118.895C278.888 120.918 278.709 131.426 275.007 127.548C273.571 126.044 274.491 123.731 274.597 121.876C274.743 119.323 274.657 116.731 274.744 114.171ZM35.3573 271.718C37.4757 272.094 40.9261 270.878 43.237 270.75C47.2782 270.528 51.4398 270.143 55.3987 269.302C58.496 268.644 62.0255 268.065 63.6958 265.067C65.189 262.388 65.7167 259.032 66.521 256.108C66.948 254.555 68.0499 252.304 68.0499 250.698C68.0499 248.61 67.7682 249.021 65.5905 247.878C62.8342 246.432 60.1524 244.417 57.1794 243.597C56.2801 243.421 55.3802 243.249 54.4797 243.08C53.3147 242.404 52.657 242.737 52.5047 244.076C51.3678 245.275 50.7011 247.485 49.7471 248.887C47.572 252.084 44.9889 254.262 41.6144 256.106C35.5421 259.423 29.8841 261.982 23.3804 264.151C19.7962 265.346 16.4911 267.023 12.9878 268.34C10.1811 269.396 6.30756 269.717 4.15155 272.066C1.71895 274.717 5.45803 275.681 7.53629 277.473C9.23918 278.942 9.27232 279.279 11.6017 278.566C13.3371 278.034 14.8755 277.019 16.5421 276.33C22.2504 273.973 29.1595 272.403 35.3573 271.718ZM165.817 313.764C163.69 313.303 161.562 312.843 159.435 312.384C161.527 316.29 165.928 322.005 162.769 326.526C161.589 328.215 159.625 328.696 157.871 329.553C155.749 330.59 153.789 331.918 151.782 333.154C143.507 338.25 135.097 343.417 126.377 347.789C129.107 348.67 133.304 349.28 136.115 348.512C139.389 347.618 142.42 345.565 145.781 344.667C151.811 343.058 158.158 341.688 164.283 340.862C169.291 340.187 181.825 341.712 181.216 334.181C180.638 327.031 176.367 320.21 175.097 313.142C171.978 313.835 169.003 313.714 165.817 313.764ZM292.627 199.329C295.052 187.427 296.5 175.323 299.361 163.507C300.788 157.612 301.793 151.637 303.187 145.741C303.836 142.998 304.326 140.228 304.958 137.49C305.597 134.718 306.974 132.159 307.289 129.294C304.972 129.867 304.436 135.174 303.733 137.171C302.445 140.834 301.039 144.354 299.384 147.861C296.752 153.435 293.959 158.813 290.99 164.218C287.859 169.918 284.552 175.4 280.641 180.605C279.356 182.316 277.613 183.656 276.784 185.532C275.481 188.484 274.934 192.002 273.69 195.073C274.566 195.518 276.829 195.629 277.904 195.841C279.902 196.235 281.303 196.585 283.222 197.536C286.604 199.21 289.445 201.195 291.704 204.207C292.272 202.66 292.42 200.965 292.627 199.329ZM198.372 290.135C198.332 278.673 198.17 267.113 198.358 255.735C198.409 252.576 198.667 249.168 199.125 246.033C199.412 244.062 201.105 239.874 199.992 238.929C199.041 238.121 194.022 238.653 192.79 238.624C190.401 238.569 188.019 238.463 185.626 238.283C185.626 242.531 187.285 247.355 188.056 251.557C188.775 255.477 189.366 259.418 189.959 263.356C191.243 271.883 191.609 280.528 193.003 289.078C194.266 296.83 195.933 304.55 196.852 312.301C197.356 316.556 198.376 320.57 199.169 324.823C199.583 327.04 201.093 336.173 202.995 337.072C203.397 333.795 201.754 329.839 201.46 326.526C201.157 323.106 200.922 319.663 200.367 316.224C199.716 312.188 199.387 308.051 199.137 303.965C198.985 301.465 198.938 298.972 198.722 296.474C198.566 294.66 197.88 291.913 198.372 290.135ZM258.106 136.861C258.185 135.613 254.954 135.664 254.353 134.229C253.132 131.316 255.914 131.84 257.625 131.539C257.015 129.919 245.595 130.509 248.256 126.135C250.101 123.101 257.1 127.745 258.971 124.862C260.2 122.968 256.854 122.707 255.527 122.517C253.531 122.231 248.827 123.156 248.982 120.565C249.177 117.309 258.321 115.062 260.886 114.106C260.602 111.877 249.596 115.046 248.003 115.949C244.398 117.995 241.636 121.664 241.107 125.743C240.491 130.488 242.897 134.225 247.637 135.39C249.613 135.875 251.074 135.929 252.902 136.659C254.105 137.139 257.999 138.336 258.824 137.125C258.585 137.037 258.345 136.949 258.106 136.861ZM322.717 107.346C322.9 105.319 324.606 101.504 322.64 100.173C319.89 98.3096 318.75 101.38 318.127 103.225C317.365 105.477 314.161 110.989 316.962 112.393C317.614 112.719 320.702 112.339 321.247 112.124C322.765 112.519 323.254 111.951 322.717 110.418V107.346ZM255.594 270.995C255.421 265.456 257.901 258.798 259.306 253.373C260.899 247.227 261.739 240.958 263.426 234.879C261.549 235.105 259.654 235.29 257.799 235.667C255.268 236.181 255.223 236.1 255.404 238.582C255.676 242.311 255.32 245.966 255.128 249.693C254.742 257.155 255.682 264.74 255.057 272.154C255.614 272.296 255.792 271.909 255.594 270.995ZM325.666 125.84C331.746 126.77 337.574 128.698 343.107 131.288C346.157 132.716 349.516 134.25 352.924 134.82C356.711 135.454 360.727 135.157 364.594 135.401C365.957 135.487 369.541 136.15 370.87 135.348C372.187 134.553 372.084 133.207 372.146 131.602C372.306 127.475 370.437 123.433 368.757 119.73C367.316 116.553 366.226 114.127 363.99 111.394C361.118 107.884 358.618 104.096 355.928 100.432C353.9 97.6706 351.851 94.9485 349.784 92.19C348.306 90.2151 348.376 89.5354 346.147 89.7564C343.953 89.9743 341.744 91.2714 339.677 91.9587C336.609 92.9793 332.894 93.5393 330.096 95.1708C328.287 96.2258 328.207 96.4201 328.228 98.2612C328.247 99.9762 328.801 102.068 329.826 103.409C331.957 106.195 335.49 107.669 338.521 109.058C340.275 109.861 341.791 111.001 343.352 112.11C345.034 113.305 348.428 114.009 349.715 115.371C353.462 119.338 346.641 118.554 344.734 118.434C340.621 118.175 336.53 118.215 332.387 118.211C327.864 118.208 323.377 117.998 318.918 118.145C316.306 118.231 313.309 116.907 311.617 114.699C310.798 113.629 310.479 112.618 309.408 111.508C308.004 110.055 306.783 108.524 305.075 107.4C302.28 105.56 297.202 104.519 293.875 105.206C295.067 105.372 300.669 107.279 298.203 109.677C297.903 109.968 294.299 110.16 293.515 110.52C292.102 111.169 290.32 112.112 289.491 113.483C291.905 113.079 300.858 112.61 296.291 117.242C295.17 118.38 291.951 119.514 294.69 120.723C295.319 121.001 296.578 120.608 297.388 120.858C298.592 121.231 299.576 122.228 300.704 122.759C303.903 124.269 308.313 125.199 311.652 124.869C316.268 124.411 321.079 125.235 325.666 125.84ZM203.234 265.412C203.391 272.066 203.151 278.76 203.293 285.445C203.445 292.584 204.36 299.58 204.797 306.647C205.189 312.98 206.044 319.194 206.739 325.497C207.138 329.128 207.599 332.6 208.214 336.203C208.789 339.575 208.887 342.546 204.856 343.453C197.149 345.187 195.952 334.1 194.462 329.428C192.239 322.456 190.813 315.137 189.711 307.909C187.66 294.449 184.933 281.176 183.869 267.601C183.214 259.242 182.264 250.969 181.725 242.618C181.619 240.981 182.036 238.459 180.599 237.731C179.734 237.293 177.354 237.289 176.263 236.972C173.223 236.088 170.419 234.786 167.453 233.434C169.558 244.441 170.253 255.394 171.832 266.497C172.67 272.389 174.273 278.494 175.662 284.293C177.102 290.302 177.422 296.772 179.083 302.65C179.815 305.241 180.434 306.296 179.372 308.955C178.07 312.22 178.934 313.001 180.567 316.207C183.571 322.104 185.865 329.065 185.356 335.714C184.94 341.144 180.837 343.987 175.755 345.452C169.397 347.284 162.74 347.068 156.344 349.148C150.771 350.961 145.109 352.3 139.698 354.693C137.516 355.657 135.443 356.802 133.02 356.979C129.697 357.221 127.456 355.292 124.317 354.89C122.356 354.64 119.483 355.576 118.353 353.519C117.457 351.889 118.471 348.332 119.596 347.019C122.755 343.331 129.082 340.118 133.342 337.942C138.253 335.434 143.004 332.294 147.553 329.057C150.311 327.095 153.123 325.211 155.879 323.245C157.702 321.944 158.395 321.936 158.209 319.868C158.06 318.22 157.317 316.621 157.187 314.932C157.088 313.639 157.541 311.876 156.929 311.032C156.48 310.41 154.793 309.971 154.129 309.5C151.703 307.779 151.152 305.652 150.05 303.035C147.547 297.093 144.671 291.317 142.255 285.327C137.066 272.465 133.9 258.941 129.598 245.817C125.203 232.409 121.273 218.333 118.853 204.422C115.614 205.407 112.558 209.769 109.978 211.926C106.494 214.843 102.923 217.663 99.5061 220.659C93.9048 225.571 88.2335 230.348 83.6047 236.23C81.3747 239.063 79.5489 242.112 77.5299 245.088C76.3636 246.808 75.2764 248.754 74.0132 250.39C73.8105 250.652 73.8048 251.191 73.5862 251.415C73.105 251.906 72.1867 251.252 71.8782 251.575C69.9752 253.565 70.0001 259.216 69.4067 261.842C68.5897 265.461 67.672 269.623 64.8462 272.117C60.4813 275.969 52.4314 276.566 46.9072 276.766C39.8178 277.023 32.9406 278.998 26.2145 281.12C23.077 282.11 20.0218 283.267 16.8728 284.228C15.0616 284.782 12.9955 285.884 11.0612 285.672C8.72869 285.417 6.88688 283.454 5.17826 281.995C2.44484 279.661 -0.0859052 277.361 0.00223654 273.532C0.100826 269.479 2.29635 266.42 5.75502 264.407C12.4416 260.515 19.9205 258.02 27.1278 255.33C29.8899 254.299 32.2543 253.158 34.8953 251.77C38.6267 249.807 42.9222 248.206 46.233 245.616C47.2093 244.851 50.7967 242.509 51.1026 241.301C51.1428 241.144 50.2461 239.3 50.2423 239.007C50.2333 238.255 50.6788 237.44 50.9529 236.796C52.6774 232.742 55.5702 228.838 57.7816 225.015C61.8317 218.012 65.8971 210.973 70.5928 204.387C79.9561 191.256 90.4742 178.4 101.827 166.938C107.361 161.35 112.143 155.012 117.755 149.501C119.979 147.319 122.326 145.541 125.066 144.125C128.12 142.545 131.548 142.236 135.049 141.753C143.532 140.586 150.616 143.095 158.581 145.279C166.11 147.343 173.647 149.084 181.219 151.234C189.533 153.595 197.763 155.86 206.052 158.433C210.481 159.808 215.037 160.652 219.486 161.971C221.629 162.606 229.729 166.584 231.515 165.277C225.888 162.636 220.123 160.229 214.102 158.636C212.329 158.167 211.197 158.686 211.262 156.65C211.299 155.539 212.547 154.04 212.996 153.126C214.072 150.938 215.29 148.799 216.342 146.605C212.526 147.688 202.266 151.439 199.39 147.562C196.38 143.503 198.893 135.545 200.779 131.571C205.704 121.197 214.079 112.54 222.24 104.72C224.005 103.03 227.811 100.822 228.751 98.6683C229.038 98.0134 228.415 97.0514 229.061 96.2009C229.444 95.6951 230.986 95.3492 231.602 94.8039C233.846 92.8175 235.636 88.6377 237.187 86.0334C238.811 83.3062 240.274 80.3527 242.315 77.9058C245.652 73.9044 249.098 69.6628 254.503 68.727C257.154 68.2683 259.969 68.5129 262.51 67.5975C265.582 66.4903 268.502 64.746 271.604 63.5993C270.834 62.0168 270.21 59.5004 268.717 59.3278C267.279 59.1609 265.17 60.3968 263.525 60.3879C261.122 60.3745 259.07 59.9903 256.751 59.5323C254.184 59.0245 253.338 59.1169 252.403 56.3323C251.421 53.4152 251.668 50.0273 251.677 46.9974C251.681 45.5169 251.974 43.679 251.848 42.2259C251.659 40.0363 251.233 39.9522 249.517 38.5596C247.372 36.8197 244.729 34.5174 247.356 31.4945C248.775 29.8611 251.692 31.1314 252.949 29.3763C254.23 27.5887 254.168 23.0981 254.558 20.9983C250.61 22.9388 252.058 15.6846 252.057 13.939C252.057 11.3991 250.354 6.83132 252.805 4.71818C253.944 3.73711 254.789 4.54872 256.091 3.98492C257.577 3.34149 258.512 1.65391 260.093 0.999651C263.234 -0.30123 266.442 1.26531 269.667 1.00666C273.367 0.710425 277.001 0.138343 280.721 0.732085C282.484 1.01239 283.225 1.68194 284.717 2.4324C286.151 3.1542 287.606 3.35168 289.163 3.8161C290.549 4.22956 291.765 4.43851 292.701 5.64638C293.441 6.60198 293.14 8.20928 293.887 9.033C294.625 9.84462 296.084 9.72677 296.962 10.6906C297.806 11.6157 298.311 13.1446 298.75 14.2958C299.342 15.8464 299.412 16.4287 300.455 17.6697C301.364 18.7527 302.674 19.6235 303.433 20.8588C305.221 23.7708 305.267 27.9818 304.696 31.2576C304.502 32.3731 302.886 35.2564 303.139 36.2056C303.38 37.109 304.896 36.8713 305.582 37.4428C306.175 37.9365 306.697 40.1363 307.165 40.2707C308.176 40.5606 309.423 38.5647 310.189 38.2652C311.519 37.7448 312.076 37.2109 312.814 39.1724C313.36 40.6281 312.599 42.6036 312.198 43.9931C311.688 45.7616 311.125 47.8912 309.774 49.2284C308.185 50.8007 306.914 49.9413 305.161 50.788C302.535 52.057 303.31 56.0246 300.078 57.1586C296.999 58.239 293.606 54.8397 291.276 53.277C291.759 57.0707 293.575 60.7261 292.703 64.6141C299.786 61.8391 306.792 57.9008 314.511 57.0331C318.447 56.5903 322.423 56.066 326.138 57.7001C330.487 59.6126 333.152 63.8312 336.096 67.3363C341.628 73.9242 347.305 80.3273 352.615 87.1273C357.485 93.3647 361.591 100.592 366.952 106.433C372.388 112.356 376.49 121.965 375.895 130.167C375.841 130.907 375.268 132.589 375.358 133.387C375.428 133.998 375.984 134.774 375.975 135.267C375.945 136.926 375.396 137.882 373.814 138.803C371.072 140.4 366.985 141.208 363.886 141.604C359.769 142.131 354.726 142.188 350.606 141.625C346.357 141.044 342.622 138.666 338.715 137.229C335.288 135.968 331.846 135.18 328.244 134.376C326.258 133.932 324.058 132.703 322.831 133.892C321.703 134.985 321.47 140.594 321.207 142.085C318.358 158.25 314.972 173.867 311.972 189.95C308.574 208.179 306.249 226.401 303.886 244.784C301.737 261.495 301.035 278.395 300.554 295.09C300.325 303.054 300.292 310.933 300.34 318.904C300.368 323.367 302.599 338.266 295.982 338.836C292.094 339.173 288.983 333.598 287.941 330.558C286.376 325.99 285.561 321.071 285.311 316.273C284.806 306.559 284.144 296.838 283.752 287.12C283.328 276.592 283.868 265.87 284.733 255.376C285.604 244.812 287.799 234.403 288.472 223.823C286.453 226.705 285.806 227.247 282.443 228.502C278.923 229.816 275.537 231.37 271.985 232.595C270.777 233.012 268.891 233.273 267.901 233.955C266.073 235.214 267.274 233.786 266.69 236.236C266.066 238.854 265.949 241.996 265.784 244.686C265.005 257.309 261.508 269.843 259.895 282.4C259.506 285.431 260.062 298.301 254.844 294.245C250.826 291.122 250.906 281.31 250.334 276.714C249.573 270.588 249.997 264.29 250.117 258.127C250.254 251.108 250.372 243.746 252.047 236.892C249.05 236.379 244.882 237.777 241.866 238.012C239.254 238.215 236.652 238.344 234.055 238.487C227.861 238.827 221.482 239.098 215.184 238.977C214.037 238.954 206.547 237.906 205.59 238.751C205.279 239.026 205.184 242.802 205.126 243.264C204.905 244.999 204.606 246.732 204.383 248.458C203.672 253.974 203.03 259.898 203.234 265.412Z" fill="#0E0E0E"/>
<path fill-rule="evenodd" clip-rule="evenodd" d="M314.467 317.837C319.194 319.684 324.21 320.354 328.977 322.037C333.238 323.542 337.196 325.564 341.391 327.093C341.637 325.147 341.767 321.85 341.049 320.016C340.031 317.418 337.353 317.354 334.716 316.429C328.297 314.178 321.546 313.703 315.174 311.072C316.265 313.172 315.778 315.953 314.467 317.837ZM396.06 311.044C385.851 311.343 376.096 313.719 366.035 315.188C361.139 315.902 356.239 316.54 351.339 317.207C349.453 317.463 346.016 317.161 344.646 318.794C343.509 320.147 344.755 324.762 344.25 326.744C346.313 326.896 349.977 324.969 352.216 324.65C355.703 324.154 359.145 323.459 362.668 323.238C368.248 322.886 373.731 322.588 379.302 321.966C384.967 321.335 390.449 320.161 396.159 319.732C398.935 319.523 400.051 320.044 400.215 317.114C400.279 315.968 400.436 314.05 400.115 312.92C400.628 311.531 400.173 310.857 398.748 310.897C397.844 310.795 396.948 310.844 396.06 311.044ZM376.316 301.691C379.076 301.433 381.848 301.061 384.616 300.906C385.177 300.874 388.024 301.045 388.489 300.523C389.146 299.786 388.414 297.086 388.293 296.25C387.882 293.41 387.429 291.758 384.33 291.752C381.715 291.746 379.008 292.299 376.404 292.553C364.579 293.713 352.815 294.202 341.121 296.403C341.833 299.434 342.641 302.561 341.79 305.661C347.399 305.95 353.558 304.871 359.04 303.763C364.644 302.632 370.589 302.07 376.316 301.691ZM357.601 273.152C353.377 273.171 348.912 275.032 344.743 274.617C344.681 275.392 346.015 274.749 346.383 275.474C347.17 275.476 347.445 275.733 347.204 276.246C347.219 276.596 347.04 276.801 346.667 276.86C346.483 276.877 346.299 276.892 346.116 276.908C345.31 276.934 345.178 277.478 345.72 278.541C345.487 279.857 345.837 281.529 345.888 282.851C353.379 281.831 360.657 280.771 368.201 280.316C371.763 280.101 375.322 280.102 378.879 279.809C382.793 279.486 387.065 280.178 390.892 279.445C392.937 279.053 392.723 279.08 392.574 276.42C392.483 274.804 392.517 272.886 391.201 271.707C389.003 269.738 383.999 270.876 381.372 270.945C373.458 271.154 365.41 271.89 357.601 273.152ZM361.926 311.139C373.243 310.111 384.475 307.86 395.856 307.86C395.051 307.056 393.299 306.849 392.297 306.41C391.155 305.91 390.077 304.845 388.961 304.408C386.722 303.531 384.443 304.75 382.143 305.276C376.594 306.547 370.901 306.59 365.344 307.836C359.599 309.124 353.779 310.312 347.927 310.967C345.141 311.278 342.152 311.91 339.399 311.174C339.176 311.015 338.951 310.855 338.728 310.695C338.487 309.671 337.819 309.397 336.724 309.875C335.332 309.61 333.56 309.952 332.159 309.987C332.103 310.546 337.278 312.301 338.264 312.736C340.642 313.782 342.254 314.549 344.793 314.1C350.511 313.09 356.135 311.885 361.926 311.139ZM322.115 278.051C322.557 279.775 324.414 278.991 326.013 279.181C328.159 279.435 330.294 280.176 332.372 280.734C336.147 281.748 339.923 282.749 343.682 283.821C343.534 282.303 343.87 278.847 343.067 277.5C342.226 276.088 338.235 275.469 336.376 275.039C331.692 273.955 326.688 274.572 321.929 274.8C322.013 275.882 322.075 276.965 322.115 278.051ZM367.113 288.837C371.557 288.461 376.007 288.168 380.465 288.012C385.561 287.833 381.857 287.019 381.749 283.911C375.051 284.979 368.294 285.19 361.616 286.103C356.084 286.861 349.494 288.838 343.852 287.776C341.19 287.275 338.473 287.082 335.642 286.799C332.971 286.532 330.451 285.288 327.813 284.979C324.851 284.631 321.825 286.296 318.879 286.736C317.63 286.923 317.34 287.77 316.75 286.266C316.138 284.707 317.89 283.433 318.58 282.501C319.385 281.412 319.05 283.18 319.498 281.479C319.623 281.003 319.283 279.805 319.221 279.292C319.063 277.994 318.655 276.586 318.592 275.29C318.533 274.101 318.523 272.285 319.815 271.59C320.603 271.167 321.161 271.785 321.849 271.665C327.213 270.732 333.522 270.655 338.962 271.556C344.859 272.531 349.935 269.948 355.747 268.901C362.566 267.672 369.456 267.488 376.334 266.969C382.214 266.525 392.959 264.224 395.199 271.735C395.833 273.863 396.758 279.722 395.051 281.533C392.811 283.911 387.625 283.152 384.729 283.77C385.162 285.002 386.452 285.84 386.006 287.308C390.065 287.499 390.782 291.333 391.418 294.912C392.076 298.614 390.792 300.086 394.331 302.014C399.263 304.701 404.488 307.415 404.391 313.815C404.343 317.033 403.983 321.885 400.679 323.555C397.447 325.188 392.184 324.912 388.622 325.505C381.724 326.654 374.802 328.001 367.862 328.691C360.472 329.425 352.959 330.028 345.557 330.356C341.524 330.536 338.04 331.145 334.146 329.788C330.316 328.454 326.57 327.479 322.619 326.488C318.718 325.512 306.778 324.195 310.257 317.525C310.814 316.457 312.717 315.609 313.024 314.599C313.52 312.971 311.845 311.701 311.915 310.23C312.043 307.538 315.08 307.2 317.177 307.2C313.583 304.952 318.396 302.291 318.367 300.383C318.317 297.02 314.135 294.838 313.898 292.019C313.323 285.16 335.083 292.302 338.432 293.786C335.854 297.608 323.895 294.301 320.332 293.721C320.819 294.997 321.283 296.145 321.424 297.452C321.537 298.516 321.131 299.733 321.503 300.805C322.091 302.5 322.071 302.176 324.152 302.638C325.691 302.979 327.214 303.374 328.748 303.736C331.106 304.292 334.814 305.785 337.149 305.703C339.198 305.632 338.793 306.267 339.169 303.992C339.371 302.769 339.026 301.469 338.82 300.271C338.39 297.761 337.761 295.384 339.953 293.583C342.044 291.865 346.45 291.048 349.014 290.442C354.705 289.097 361.273 288.768 367.113 288.837Z" fill="#0E0E0E"/>
<path fill-rule="evenodd" clip-rule="evenodd" d="M394.194 245.988C388.013 244.952 381.733 244.697 375.48 245.011C375.819 246.559 376.157 248.106 376.497 249.652C382.355 248.144 388.299 247.26 394.194 245.988ZM343.936 257.992C341.457 257.811 343.181 258.919 343.793 260.542C344.546 262.535 344.384 265.055 344.557 267.153C351.81 264.387 360.248 262.769 367.958 261.838C371.615 261.397 375.325 261.27 379.002 261.082C380.089 261.026 384.014 261.481 384.809 260.75C385.4 260.206 384.985 257.206 384.418 256.544C381.332 252.946 369.402 256.053 365.086 256.375C358.009 256.903 351.062 258.168 343.936 257.992ZM354.236 248.351C360.657 248.968 366.858 248.909 373.28 249.872C372.793 245.79 373.375 244.748 368.744 244.531C364.618 244.339 360.504 244.183 356.397 244.185C347.16 244.19 337.946 244.013 328.699 244.013V248.162C337.251 247.286 345.667 248.867 354.236 248.351ZM323.357 263.606C327.409 263.589 331.24 265.118 335.293 265.514C337.719 265.752 336.957 266.053 338.639 267.27C341.26 269.168 342.015 268.157 341.687 265.579C340.573 256.858 329.531 258.814 323.169 258.329C323.587 260.409 322.626 262.172 321.209 263.606H323.357ZM367.162 252.409C361.332 252.504 355.496 252.835 349.708 252.714C347.117 252.66 343.76 252.147 341.221 252.588C339.361 252.912 337.805 253.859 335.764 254.212C338.761 255.826 340.281 254.735 343.432 254.368C346.58 254.001 349.774 254.008 352.935 253.817C358.126 253.503 363.659 252.259 368.774 252.597C368.867 251.877 368.33 251.814 367.162 252.409ZM320.927 271.297C318.253 271.291 321.932 268.25 322.416 267.948C319.454 267.948 318.738 266.172 319.595 263.319C320.404 260.632 321.002 261.454 318.968 259.216C317.437 257.531 317.206 256.29 319.01 254.406C320.847 252.489 324.566 253.031 326.194 251.449C328.964 248.757 325.389 243.393 329.228 241.33C331.822 239.937 336.005 240.109 338.87 239.815C341.639 239.53 344.505 239.475 347.293 239.437C353.369 239.354 359.68 240.373 365.73 240.934C367.935 241.138 370.414 242.029 372.587 242.031C374.803 242.034 377.124 241.539 379.412 241.596C382.072 241.663 384.634 241.467 387.377 241.904C389.479 242.239 394.386 242.415 395.992 243.977C401.344 249.183 388.652 251.574 386.468 252.159C388.691 254.594 388.598 257.813 388.263 260.878C389.321 260.878 391.145 260.418 391.693 261.604C392.373 263.078 389.855 263.46 389.26 263.632C385.835 264.621 381.828 264.35 378.299 264.71C371.243 265.427 364.273 265.842 357.29 267.178C353.887 267.83 350.505 268.636 347.105 269.27C346.518 269.38 345.927 269.468 345.335 269.534C344.425 269.456 344.13 270.027 344.451 271.25C343.507 271.711 339.989 270.562 338.9 270.386C332.671 269.376 327.099 269.796 320.927 271.297Z" fill="#0E0E0E"/>
<path fill-rule="evenodd" clip-rule="evenodd" d="M446.713 331.786C442.696 334.948 438.961 337.931 434.61 340.679C437.685 340.583 447.914 335.678 446.713 331.786ZM445.144 326.633C442.951 324.749 440.773 324.942 438.059 324.37C435.559 323.844 433.131 322.939 430.636 322.336C428.679 321.863 426.741 321.223 424.791 320.777C422.036 320.145 421.765 320.84 419.232 322.283C410.249 327.403 400.197 330.924 390.735 335.079C393.513 337.525 399.762 337.63 403.234 338.41C405.769 338.979 408.181 339.757 410.61 340.658C412.87 341.497 416.513 343.428 418.897 343.492C420.91 343.547 422.546 341.566 424.279 340.499C426.558 339.095 428.827 337.716 431.124 336.347C435.986 333.451 440.531 329.901 445.144 326.633ZM404.548 347.37C403.511 346.372 400.39 346.416 399.089 346.111C396.528 345.513 394.005 344.891 391.409 344.441C387.197 343.713 380.544 343.387 380.087 337.922C379.706 333.382 385.192 332.304 388.402 330.766C393.227 328.451 398.151 326.316 403.099 324.275C407.739 322.362 412.446 320.744 417.17 319.091C418.091 318.769 418.839 318.813 419.591 318.076C420.185 317.494 420.001 316.364 420.652 315.756C422.141 314.364 424.073 315.096 425.862 315.453C429.926 316.264 434.145 317.328 438.019 318.831C442.045 320.394 445.647 320.72 446.613 325.284C448.672 324.318 450.22 324.178 449.974 327.016C449.902 327.85 449.297 328.757 449.151 329.617C448.937 330.885 449.312 332.221 449.1 333.493C448.33 338.115 442.098 341.539 438.236 343.354C433.474 345.591 427.329 348.898 422.012 349.334C416.347 349.8 410.173 347.575 404.548 347.37Z" fill="#0E0E0E"/>
<path fill-rule="evenodd" clip-rule="evenodd" d="M332.433 270.688C330.744 270.698 329.054 270.709 327.366 270.72C329.051 270.403 330.741 270.399 332.433 270.688Z" fill="#0E0E0E"/>
<path fill-rule="evenodd" clip-rule="evenodd" d="M233.616 91.9673C233.109 92.8115 232.603 93.6557 232.096 94.501C232.268 93.4125 232.655 92.4796 233.616 91.9673Z" fill="#0E0E0E"/>
<path fill-rule="evenodd" clip-rule="evenodd" d="M332.433 294.909C333.449 294.918 334.464 294.926 335.474 294.936C334.456 294.928 333.445 294.918 332.433 294.909Z" fill="#0E0E0E"/>
<path fill-rule="evenodd" clip-rule="evenodd" d="M335.474 270.713C334.46 270.703 333.446 270.694 332.433 270.684C333.45 270.407 334.464 270.417 335.474 270.713Z" fill="#0E0E0E"/>
<path fill-rule="evenodd" clip-rule="evenodd" d="M375.803 126.933C375.775 125.919 375.747 124.905 375.718 123.893C375.747 124.907 375.775 125.92 375.803 126.933Z" fill="#0E0E0E"/>
<path fill-rule="evenodd" clip-rule="evenodd" d="M203.495 279.973C203.475 279.128 203.454 278.283 203.433 277.439C203.454 278.285 203.475 279.129 203.495 279.973Z" fill="#0E0E0E"/>
<path fill-rule="evenodd" clip-rule="evenodd" d="M231.083 238.671C231.761 238.672 232.437 238.672 233.11 238.674C232.431 238.674 231.757 238.672 231.083 238.671Z" fill="#0E0E0E"/>
<path fill-rule="evenodd" clip-rule="evenodd" d="M321.791 56.6561C320.946 56.7175 320.102 56.7783 319.257 56.8396C320.102 56.7783 320.947 56.7175 321.791 56.6561Z" fill="#0E0E0E"/>
<path fill-rule="evenodd" clip-rule="evenodd" d="M300.292 304.297C300.266 303.621 300.241 302.943 300.216 302.27C300.241 302.948 300.266 303.623 300.292 304.297Z" fill="#0E0E0E"/>
<path fill-rule="evenodd" clip-rule="evenodd" d="M301.295 278.453C301.277 277.777 301.258 277.1 301.24 276.426C301.259 277.102 301.277 277.777 301.295 278.453Z" fill="#0E0E0E"/>
<path fill-rule="evenodd" clip-rule="evenodd" d="M284.001 290.108C284.026 290.785 284.051 291.461 284.074 292.135C284.05 291.458 284.026 290.784 284.001 290.108Z" fill="#0E0E0E"/>
<path fill-rule="evenodd" clip-rule="evenodd" d="M235.136 238.176C235.645 238.169 236.153 238.163 236.656 238.155C236.147 238.163 235.641 238.169 235.136 238.176Z" fill="#0E0E0E"/>
<path fill-rule="evenodd" clip-rule="evenodd" d="M382.095 264.55C382.603 264.528 383.111 264.506 383.615 264.484C383.106 264.506 382.6 264.528 382.095 264.55Z" fill="#0E0E0E"/>
<path fill-rule="evenodd" clip-rule="evenodd" d="M285.008 306.324C285.037 307.001 285.066 307.678 285.095 308.351C285.066 307.673 285.037 306.998 285.008 306.324Z" fill="#0E0E0E"/>
<path fill-rule="evenodd" clip-rule="evenodd" d="M339.325 302.777C339.292 303.454 339.257 304.13 339.223 304.804C339.257 304.127 339.292 303.452 339.325 302.777Z" fill="#0E0E0E"/>
<path fill-rule="evenodd" clip-rule="evenodd" d="M280.919 0.825919C280.203 0.734703 279.486 0.644247 278.77 0.553031C279.48 0.71722 280.258 0.108355 280.919 0.825919Z" fill="#0E0E0E"/>
<path fill-rule="evenodd" clip-rule="evenodd" d="M250.114 260.716C250.095 261.393 250.076 262.07 250.056 262.743C250.075 262.065 250.095 261.391 250.114 260.716Z" fill="#0E0E0E"/>
<path fill-rule="evenodd" clip-rule="evenodd" d="M206.557 322.54C206.523 321.864 206.487 321.188 206.453 320.513C206.488 321.189 206.523 321.865 206.557 322.54Z" fill="#0E0E0E"/>
<path fill-rule="evenodd" clip-rule="evenodd" d="M370.439 265.546C370.949 265.536 371.457 265.524 371.96 265.515C371.45 265.526 370.945 265.536 370.439 265.546Z" fill="#0E0E0E"/>
<path fill-rule="evenodd" clip-rule="evenodd" d="M198.391 142.643C198.395 143.319 198.399 143.996 198.402 144.67C198.398 143.992 198.395 143.317 198.391 142.643Z" fill="#0E0E0E"/>
<path fill-rule="evenodd" clip-rule="evenodd" d="M187.759 294.669C187.757 295.346 187.754 296.023 187.75 296.696C187.753 296.019 187.756 295.343 187.759 294.669Z" fill="#0E0E0E"/>
<path fill-rule="evenodd" clip-rule="evenodd" d="M314.06 290.615C314.041 291.291 314.024 291.968 314.004 292.642C313.727 291.947 313.758 291.273 314.06 290.615Z" fill="#0E0E0E"/>
<path fill-rule="evenodd" clip-rule="evenodd" d="M300.769 287.574C300.764 286.898 300.759 286.222 300.753 285.547C300.759 286.225 300.764 286.899 300.769 287.574Z" fill="#0E0E0E"/>
<path fill-rule="evenodd" clip-rule="evenodd" d="M404.392 347.604C404.901 347.617 405.41 347.632 405.912 347.646C405.402 347.632 404.897 347.618 404.392 347.604Z" fill="#0E0E0E"/>
<path fill-rule="evenodd" clip-rule="evenodd" d="M386.149 283.276C386.488 283.27 386.828 283.264 387.162 283.258C386.821 283.264 386.485 283.27 386.149 283.276Z" fill="#0E0E0E"/>
<path fill-rule="evenodd" clip-rule="evenodd" d="M373.48 284.788C373.82 284.787 374.159 284.787 374.493 284.786C374.154 284.787 373.816 284.788 373.48 284.788Z" fill="#0E0E0E"/>
<path fill-rule="evenodd" clip-rule="evenodd" d="M176.13 288.081C176.109 287.574 176.089 287.067 176.069 286.561C176.09 287.068 176.11 287.575 176.13 288.081Z" fill="#0E0E0E"/>
<path fill-rule="evenodd" clip-rule="evenodd" d="M383.615 287.697C383.175 288.142 382.609 287.879 382.095 287.907C382.602 287.837 383.109 287.767 383.615 287.697Z" fill="#0E0E0E"/>
<path fill-rule="evenodd" clip-rule="evenodd" d="M323.312 271.483C322.643 271.799 321.966 271.843 321.285 271.505C321.961 271.498 322.636 271.491 323.312 271.483Z" fill="#0E0E0E"/>
<path fill-rule="evenodd" clip-rule="evenodd" d="M367.399 288.85C366.723 288.844 366.047 288.839 365.372 288.833C366.048 288.839 366.724 288.844 367.399 288.85Z" fill="#0E0E0E"/>
<path fill-rule="evenodd" clip-rule="evenodd" d="M184.228 268.824C184.215 269.333 184.201 269.84 184.188 270.345C184.2 269.836 184.214 269.33 184.228 268.824Z" fill="#0E0E0E"/>
<path fill-rule="evenodd" clip-rule="evenodd" d="M300.722 296.189C300.748 295.681 300.774 295.173 300.8 294.669C300.774 295.177 300.748 295.683 300.722 296.189Z" fill="#0E0E0E"/>
<path fill-rule="evenodd" clip-rule="evenodd" d="M370.44 266.966C369.764 267.022 369.088 267.079 368.413 267.136C369.089 267.079 369.764 267.022 370.44 266.966Z" fill="#0E0E0E"/>
<path fill-rule="evenodd" clip-rule="evenodd" d="M203.485 265.277C203.472 264.769 203.458 264.262 203.443 263.757C203.457 264.266 203.472 264.772 203.485 265.277Z" fill="#0E0E0E"/>
<path fill-rule="evenodd" clip-rule="evenodd" d="M288.152 226.257C288.112 226.765 288.072 227.272 288.032 227.777C288.072 227.27 288.112 226.764 288.152 226.257Z" fill="#0E0E0E"/>
<path fill-rule="evenodd" clip-rule="evenodd" d="M380.575 241.592C379.898 241.942 379.223 241.898 378.548 241.588C379.223 241.589 379.899 241.591 380.575 241.592Z" fill="#0E0E0E"/>
<path fill-rule="evenodd" clip-rule="evenodd" d="M300.299 311.899C300.268 311.391 300.239 310.884 300.209 310.378C300.239 310.886 300.268 311.392 300.299 311.899Z" fill="#0E0E0E"/>
<path fill-rule="evenodd" clip-rule="evenodd" d="M300.286 315.953C300.265 315.445 300.243 314.938 300.222 314.432C300.244 314.94 300.265 315.446 300.286 315.953Z" fill="#0E0E0E"/>
<path fill-rule="evenodd" clip-rule="evenodd" d="M204.467 249.061C204.475 248.554 204.481 248.045 204.489 247.541C204.481 248.05 204.474 248.555 204.467 249.061Z" fill="#0E0E0E"/>
<path fill-rule="evenodd" clip-rule="evenodd" d="M348.649 329.902C348.989 329.893 349.328 329.883 349.663 329.874C349.322 329.884 348.986 329.893 348.649 329.902Z" fill="#0E0E0E"/>
<path fill-rule="evenodd" clip-rule="evenodd" d="M185.262 334.196C185.235 333.688 185.208 333.181 185.18 332.675C185.208 333.183 185.235 333.69 185.262 334.196Z" fill="#0E0E0E"/>
<path fill-rule="evenodd" clip-rule="evenodd" d="M294.933 338.493C295.273 338.5 295.612 338.506 295.947 338.513C295.606 338.507 295.27 338.5 294.933 338.493Z" fill="#0E0E0E"/>
<path fill-rule="evenodd" clip-rule="evenodd" d="M295.144 295.176C295.173 293.655 295.201 292.134 295.229 290.615C295.2 292.136 295.172 293.655 295.144 295.176Z" fill="#0E0E0E"/>
<path fill-rule="evenodd" clip-rule="evenodd" d="M255.633 239.433C255.651 240.616 255.668 241.799 255.686 242.98C255.669 241.796 255.651 240.614 255.633 239.433Z" fill="#0E0E0E"/>
<path fill-rule="evenodd" clip-rule="evenodd" d="M168.245 313.656C167.399 313.667 166.552 313.677 165.711 313.688C166.559 313.678 167.402 313.667 168.245 313.656Z" fill="#0E0E0E"/>
<path fill-rule="evenodd" clip-rule="evenodd" d="M237.67 212.848C236.823 212.834 235.977 212.821 235.136 212.809C235.985 212.822 236.828 212.835 237.67 212.848Z" fill="#0E0E0E"/>
<path fill-rule="evenodd" clip-rule="evenodd" d="M215.88 232.593C216.725 232.592 217.57 232.591 218.414 232.59C217.569 232.591 216.724 232.592 215.88 232.593Z" fill="#0E0E0E"/>
<path fill-rule="evenodd" clip-rule="evenodd" d="M227.028 212.305C226.35 212.316 225.673 212.327 225.001 212.338C225.681 212.327 226.355 212.316 227.028 212.305Z" fill="#0E0E0E"/>
<path fill-rule="evenodd" clip-rule="evenodd" d="M172.299 313.677C171.622 313.674 170.944 313.67 170.272 313.667C170.952 313.671 171.625 313.674 172.299 313.677Z" fill="#0E0E0E"/>
<path fill-rule="evenodd" clip-rule="evenodd" d="M263.515 54.8088C264.359 54.75 265.204 54.6917 266.048 54.6329C265.204 54.6917 264.359 54.75 263.515 54.8088Z" fill="#0E0E0E"/>
<path fill-rule="evenodd" clip-rule="evenodd" d="M274.869 114.264C274.901 113.42 274.932 112.575 274.963 111.731C274.931 112.576 274.901 113.42 274.869 114.264Z" fill="#0E0E0E"/>
<path fill-rule="evenodd" clip-rule="evenodd" d="M254.393 122.119C253.884 122.119 253.376 122.119 252.873 122.12C253.383 122.12 253.888 122.119 254.393 122.119Z" fill="#0E0E0E"/>
<path fill-rule="evenodd" clip-rule="evenodd" d="M211.319 210.793C210.811 210.798 210.302 210.804 209.799 210.809C210.309 210.804 210.814 210.799 211.319 210.793Z" fill="#0E0E0E"/>
<path fill-rule="evenodd" clip-rule="evenodd" d="M199.664 231.496C200.339 231.55 201.015 231.606 201.691 231.66C201.015 231.606 200.339 231.55 199.664 231.496Z" fill="#0E0E0E"/>
<path fill-rule="evenodd" clip-rule="evenodd" d="M198.38 257.169C198.391 256.493 198.402 255.817 198.412 255.142C198.402 255.819 198.391 256.494 198.38 257.169Z" fill="#0E0E0E"/>
<path fill-rule="evenodd" clip-rule="evenodd" d="M256.42 230.157C257.095 230.091 257.772 230.025 258.447 229.958C257.771 230.025 257.095 230.091 256.42 230.157Z" fill="#0E0E0E"/>
<path fill-rule="evenodd" clip-rule="evenodd" d="M302.728 218.149C302.768 217.473 302.808 216.796 302.848 216.122C302.808 216.799 302.768 217.474 302.728 218.149Z" fill="#0E0E0E"/>
<path fill-rule="evenodd" clip-rule="evenodd" d="M242.738 213.342C242.229 213.337 241.72 213.332 241.217 213.328C241.728 213.332 242.233 213.337 242.738 213.342Z" fill="#0E0E0E"/>
<path fill-rule="evenodd" clip-rule="evenodd" d="M198.434 295.176C198.409 294.668 198.384 294.161 198.359 293.655C198.384 294.163 198.409 294.67 198.434 295.176Z" fill="#0E0E0E"/>
<path fill-rule="evenodd" clip-rule="evenodd" d="M255.251 269.331C256.358 272.078 255.736 270.133 255.765 270.767C254.821 270.894 254.649 270.415 255.251 269.331Z" fill="#0E0E0E"/>
<path fill-rule="evenodd" clip-rule="evenodd" d="M208.785 210.829C208.277 210.81 207.768 210.792 207.265 210.773C207.776 210.792 208.28 210.81 208.785 210.829Z" fill="#0E0E0E"/>
<path fill-rule="evenodd" clip-rule="evenodd" d="M312.368 159.366C312.4 158.69 312.433 158.014 312.464 157.339C312.432 158.015 312.4 158.69 312.368 159.366Z" fill="#0E0E0E"/>
<path fill-rule="evenodd" clip-rule="evenodd" d="M198.399 290.108C198.398 289.432 198.396 288.757 198.394 288.081C198.396 288.759 198.397 289.433 198.399 290.108Z" fill="#0E0E0E"/>
<path fill-rule="evenodd" clip-rule="evenodd" d="M198.344 274.905C198.379 274.398 198.415 273.891 198.45 273.385C198.414 273.893 198.379 274.4 198.344 274.905Z" fill="#0E0E0E"/>
<path fill-rule="evenodd" clip-rule="evenodd" d="M303.73 208.521C303.778 208.014 303.825 207.506 303.872 207C303.825 207.508 303.778 208.015 303.73 208.521Z" fill="#0E0E0E"/>
<path fill-rule="evenodd" clip-rule="evenodd" d="M191.741 276.426C191.786 276.934 191.831 277.441 191.877 277.946C191.831 277.439 191.786 276.932 191.741 276.426Z" fill="#0E0E0E"/>
<path fill-rule="evenodd" clip-rule="evenodd" d="M190.72 272.372C190.77 272.879 190.82 273.387 190.87 273.892C190.82 273.384 190.77 272.878 190.72 272.372Z" fill="#0E0E0E"/>
<path fill-rule="evenodd" clip-rule="evenodd" d="M292.089 202.946C292.127 202.439 292.165 201.932 292.203 201.426C292.164 201.934 292.127 202.44 292.089 202.946Z" fill="#0E0E0E"/>
<path fill-rule="evenodd" clip-rule="evenodd" d="M33.4482 271.691C34.1234 271.638 34.7993 271.584 35.4753 271.532C34.7979 271.585 34.1227 271.638 33.4482 271.691Z" fill="#0E0E0E"/>
<path fill-rule="evenodd" clip-rule="evenodd" d="M287.614 284.027C287.595 284.535 287.575 285.043 287.556 285.547C287.576 285.038 287.595 284.533 287.614 284.027Z" fill="#0E0E0E"/>
<path fill-rule="evenodd" clip-rule="evenodd" d="M295.637 285.547C295.675 285.04 295.712 284.533 295.75 284.027C295.712 284.535 295.675 285.041 295.637 285.547Z" fill="#0E0E0E"/>
<path fill-rule="evenodd" clip-rule="evenodd" d="M292.573 200.919C292.626 200.412 292.68 199.905 292.733 199.399C292.68 199.907 292.626 200.413 292.573 200.919Z" fill="#0E0E0E"/>
<path fill-rule="evenodd" clip-rule="evenodd" d="M37.5024 271.204C38.1784 271.138 38.8543 271.072 39.5295 271.005C38.8543 271.072 38.1776 271.138 37.5024 271.204Z" fill="#0E0E0E"/>
<path fill-rule="evenodd" clip-rule="evenodd" d="M252.366 212.823C252.027 212.826 251.687 212.83 251.353 212.834C251.693 212.83 252.03 212.826 252.366 212.823Z" fill="#0E0E0E"/>
<path fill-rule="evenodd" clip-rule="evenodd" d="M198.399 270.345C198.398 269.837 198.396 269.33 198.394 268.824C198.396 269.333 198.398 269.838 198.399 270.345Z" fill="#0E0E0E"/>
<path fill-rule="evenodd" clip-rule="evenodd" d="M296.746 269.331C296.567 268.807 296.478 268.291 296.826 267.811C296.799 268.319 296.773 268.825 296.746 269.331Z" fill="#0E0E0E"/>
<path fill-rule="evenodd" clip-rule="evenodd" d="M288.114 259.703C288.1 260.21 288.084 260.718 288.071 261.223C288.085 260.715 288.1 260.209 288.114 259.703Z" fill="#0E0E0E"/>
<path fill-rule="evenodd" clip-rule="evenodd" d="M288.551 309.872C288.583 310.378 288.615 310.887 288.646 311.392C288.615 310.884 288.583 310.377 288.551 309.872Z" fill="#0E0E0E"/>
<path fill-rule="evenodd" clip-rule="evenodd" d="M325.845 125.558C326.353 125.631 326.859 125.703 327.365 125.775C326.858 125.702 326.352 125.63 325.845 125.558Z" fill="#0E0E0E"/>
<path fill-rule="evenodd" clip-rule="evenodd" d="M323.818 125.605C324.498 125.646 325.246 125.32 325.845 125.798L323.818 125.605Z" fill="#0E0E0E"/>
<path fill-rule="evenodd" clip-rule="evenodd" d="M237.164 232.597C237.839 232.594 238.516 232.59 239.191 232.586C238.515 232.59 237.839 232.594 237.164 232.597Z" fill="#0E0E0E"/>
<path fill-rule="evenodd" clip-rule="evenodd" d="M252.366 125.072L254.393 125.248C253.717 125.189 253.042 125.131 252.366 125.072Z" fill="#0E0E0E"/>
<path fill-rule="evenodd" clip-rule="evenodd" d="M218.92 232.459C219.597 232.462 220.272 232.465 220.947 232.468C220.269 232.795 219.593 232.827 218.92 232.459Z" fill="#0E0E0E"/>
<path fill-rule="evenodd" clip-rule="evenodd" d="M200.482 317.473C200.443 316.965 200.405 316.458 200.366 315.953C200.405 316.461 200.443 316.966 200.482 317.473Z" fill="#0E0E0E"/>
<path fill-rule="evenodd" clip-rule="evenodd" d="M274.398 125.92C274.406 125.412 274.413 124.905 274.421 124.4C274.413 124.908 274.406 125.414 274.398 125.92Z" fill="#0E0E0E"/>
<path fill-rule="evenodd" clip-rule="evenodd" d="M231.589 232.673C232.265 232.619 232.94 232.564 233.616 232.51C232.94 232.564 232.265 232.619 231.589 232.673Z" fill="#0E0E0E"/>
<path fill-rule="evenodd" clip-rule="evenodd" d="M289.088 322.034C289.1 322.541 289.111 323.048 289.122 323.554C289.111 323.045 289.1 322.54 289.088 322.034Z" fill="#0E0E0E"/>
<path fill-rule="evenodd" clip-rule="evenodd" d="M299.678 242.473C299.724 241.966 299.771 241.459 299.817 240.953C299.77 241.461 299.724 241.967 299.678 242.473Z" fill="#0E0E0E"/>
<path fill-rule="evenodd" clip-rule="evenodd" d="M323 107.17C323.039 106.662 323.078 106.155 323.116 105.65C323.078 106.157 323.039 106.664 323 107.17Z" fill="#0E0E0E"/>
<path fill-rule="evenodd" clip-rule="evenodd" d="M274.902 63.5891C274.911 64.0962 274.921 64.604 274.931 65.1093C274.922 64.6009 274.912 64.095 274.902 63.5891Z" fill="#0E0E0E"/>
<path fill-rule="evenodd" clip-rule="evenodd" d="M256.927 54.1297C257.602 54.186 258.279 54.2427 258.954 54.2985C258.278 54.2422 257.602 54.186 256.927 54.1297Z" fill="#0E0E0E"/>
<path fill-rule="evenodd" clip-rule="evenodd" d="M155.576 342.15C156.252 342.083 156.927 342.017 157.603 341.951C156.927 342.017 156.252 342.084 155.576 342.15Z" fill="#0E0E0E"/>
<path fill-rule="evenodd" clip-rule="evenodd" d="M257.94 49.1471C257.601 49.1466 257.261 49.1461 256.927 49.1461C257.267 49.1471 257.604 49.1471 257.94 49.1471Z" fill="#0E0E0E"/>
<path fill-rule="evenodd" clip-rule="evenodd" d="M133.279 348.75C133.955 348.401 134.63 348.5 135.306 348.752C134.63 348.751 133.954 348.751 133.279 348.75Z" fill="#0E0E0E"/>
<path fill-rule="evenodd" clip-rule="evenodd" d="M396.284 310.608C395.606 310.624 394.929 310.639 394.257 310.655C394.936 310.64 395.61 310.624 396.284 310.608Z" fill="#0E0E0E"/>
<path fill-rule="evenodd" clip-rule="evenodd" d="M386.149 300.558C386.994 300.493 387.838 300.429 388.683 300.365C387.895 300.86 386.994 300.493 386.149 300.558Z" fill="#0E0E0E"/>
<path fill-rule="evenodd" clip-rule="evenodd" d="M376.521 301.602C377.365 301.54 378.209 301.48 379.054 301.418C378.21 301.48 377.365 301.54 376.521 301.602Z" fill="#0E0E0E"/>
<path fill-rule="evenodd" clip-rule="evenodd" d="M365.879 310.712C366.555 310.659 367.23 310.605 367.906 310.551C367.23 310.605 366.555 310.658 365.879 310.712Z" fill="#0E0E0E"/>
<path fill-rule="evenodd" clip-rule="evenodd" d="M368.413 310.215C369.088 310.155 369.764 310.095 370.44 310.035C369.764 310.095 369.089 310.155 368.413 310.215Z" fill="#0E0E0E"/>
<path fill-rule="evenodd" clip-rule="evenodd" d="M371.96 292.891C371.451 292.894 370.943 292.898 370.439 292.9C370.95 292.896 371.455 292.893 371.96 292.891Z" fill="#0E0E0E"/>
<path fill-rule="evenodd" clip-rule="evenodd" d="M384.629 320.808C385.305 320.752 385.98 320.694 386.656 320.637C386.025 321.08 385.313 320.825 384.629 320.808Z" fill="#0E0E0E"/>
<path fill-rule="evenodd" clip-rule="evenodd" d="M362.838 272.119C362.329 272.119 361.821 272.118 361.318 272.118C361.829 272.118 362.333 272.119 362.838 272.119Z" fill="#0E0E0E"/>
<path fill-rule="evenodd" clip-rule="evenodd" d="M357.771 273.13C357.432 273.132 357.092 273.133 356.757 273.134C357.098 273.133 357.435 273.131 357.771 273.13Z" fill="#0E0E0E"/>
<path fill-rule="evenodd" clip-rule="evenodd" d="M345.609 274.541C345.438 274.958 344.543 274.905 344.598 274.477C344.934 274.498 345.271 274.52 345.609 274.541Z" fill="#0E0E0E"/>
<path fill-rule="evenodd" clip-rule="evenodd" d="M322.014 276.426C322.034 276.933 322.055 277.44 322.076 277.946C322.055 277.438 322.034 276.931 322.014 276.426Z" fill="#0E0E0E"/>
<path fill-rule="evenodd" clip-rule="evenodd" d="M391.217 279.112C391.723 279.103 392.23 279.095 392.737 279.086C392.237 279.444 391.729 279.394 391.217 279.112Z" fill="#0E0E0E"/>
<path fill-rule="evenodd" clip-rule="evenodd" d="M371.96 271.604C371.621 271.61 371.281 271.615 370.946 271.619C371.287 271.614 371.624 271.61 371.96 271.604Z" fill="#0E0E0E"/>
<path fill-rule="evenodd" clip-rule="evenodd" d="M358.784 303.632C359.46 303.568 360.136 303.505 360.811 303.443C360.135 303.505 359.46 303.569 358.784 303.632Z" fill="#0E0E0E"/>
<path fill-rule="evenodd" clip-rule="evenodd" d="M365.879 322.899C366.556 322.652 367.233 322.567 367.906 322.905C367.23 322.903 366.554 322.901 365.879 322.899Z" fill="#0E0E0E"/>
<path fill-rule="evenodd" clip-rule="evenodd" d="M364.805 253.048L363.852 252.719C365.034 252.704 366.217 252.689 367.399 252.675C367.402 252.676 364.941 253.059 364.805 253.048Z" fill="#0E0E0E"/>
<path fill-rule="evenodd" clip-rule="evenodd" d="M355.744 244.248C354.897 244.247 354.05 244.247 353.21 244.246C354.058 244.247 354.901 244.248 355.744 244.248Z" fill="#0E0E0E"/>
<path fill-rule="evenodd" clip-rule="evenodd" d="M323.818 263.619C324.661 263.281 325.506 263.347 326.352 263.609C325.507 263.612 324.663 263.616 323.818 263.619Z" fill="#0E0E0E"/>
<path fill-rule="evenodd" clip-rule="evenodd" d="M375 255.386C374.492 255.392 373.983 255.398 373.48 255.405C373.99 255.398 374.495 255.392 375 255.386Z" fill="#0E0E0E"/>
<path fill-rule="evenodd" clip-rule="evenodd" d="M364.358 248.725C365.203 248.78 366.048 248.835 366.892 248.89C366.048 248.835 365.203 248.78 364.358 248.725Z" fill="#0E0E0E"/>
<path fill-rule="evenodd" clip-rule="evenodd" d="M354.73 248.218C355.407 248.273 356.082 248.329 356.757 248.384C356.081 248.328 355.406 248.273 354.73 248.218Z" fill="#0E0E0E"/>
<path fill-rule="evenodd" clip-rule="evenodd" d="M345.102 257.94C344.762 257.933 344.424 257.926 344.088 257.919C344.429 257.926 344.765 257.933 345.102 257.94Z" fill="#0E0E0E"/>
<path fill-rule="evenodd" clip-rule="evenodd" d="M355.744 252.893C355.404 252.872 355.065 252.851 354.73 252.83C355.071 252.851 355.407 252.872 355.744 252.893Z" fill="#0E0E0E"/>
<path fill-rule="evenodd" clip-rule="evenodd" d="M349.156 252.876C348.817 252.866 348.477 252.856 348.143 252.848C348.483 252.857 348.819 252.866 349.156 252.876Z" fill="#0E0E0E"/>
<path fill-rule="evenodd" clip-rule="evenodd" d="M367.399 252.404C367.399 252.536 368.925 251.87 368.919 252.489L367.399 252.404Z" fill="#0E0E0E"/>
<path fill-rule="evenodd" clip-rule="evenodd" d="M361.825 244.246C361.485 244.247 361.147 244.247 360.812 244.248C361.153 244.247 361.488 244.247 361.825 244.246Z" fill="#0E0E0E"/>
<path fill-rule="evenodd" clip-rule="evenodd" d="M181.927 220.215C182.476 217.975 182.327 216.223 184.281 217.654C185.353 218.44 187.122 222.424 186.988 223.773C186.822 225.438 186.063 226.101 184.497 225.572C182.695 224.962 181.981 221.89 181.927 220.215Z" fill="#0E0E0E"/>
<path fill-rule="evenodd" clip-rule="evenodd" d="M280.658 206.619C285.196 206.619 283.216 211.449 279.433 211.557C277.695 211.607 275.194 211.264 275.758 208.937C276.059 207.695 280.469 206.021 280.658 206.619Z" fill="#0E0E0E"/>
<path fill-rule="evenodd" clip-rule="evenodd" d="M231.981 216.122C235.257 217.707 230.648 224.668 227.671 222.944C223.859 220.739 230.634 217.115 231.981 216.122Z" fill="#0E0E0E"/>
<path fill-rule="evenodd" clip-rule="evenodd" d="M224.01 222.71C225.082 223.879 229.915 227.845 227.251 229.439C223.975 231.4 221.482 224.927 224.01 222.71Z" fill="#0E0E0E"/>
<path fill-rule="evenodd" clip-rule="evenodd" d="M169.095 219.669C168.029 217.608 169.496 212.215 172.75 213.201C176.025 214.193 170.897 219.122 169.095 219.669Z" fill="#0E0E0E"/>
<path fill-rule="evenodd" clip-rule="evenodd" d="M241.39 220.857C243.514 220.002 243.11 222.533 243.431 223.349C243.795 224.276 245.665 226.535 245.196 227.522C244.5 228.987 242.835 228.053 241.931 227.103C240.347 225.435 240.459 222.761 241.39 220.857Z" fill="#0E0E0E"/>
<path fill-rule="evenodd" clip-rule="evenodd" d="M209.008 223.203C207.237 223.203 203.01 218.097 205.494 217.24C208.577 216.177 211.155 223.578 209.008 223.203Z" fill="#0E0E0E"/>
<path fill-rule="evenodd" clip-rule="evenodd" d="M270.208 215.108C271.83 215.509 273.976 220.101 271.532 220.633C268.826 221.223 268.343 216.378 270.208 215.108Z" fill="#0E0E0E"/>
<path fill-rule="evenodd" clip-rule="evenodd" d="M260.374 223.723C259.102 221.274 258.789 216.03 261.894 220.239C262.567 221.151 263.262 220.782 262.916 222.286C262.614 223.599 261.409 223.723 260.374 223.723Z" fill="#0E0E0E"/>
<path fill-rule="evenodd" clip-rule="evenodd" d="M193.372 211.054C194.669 213.006 194.286 219.125 191.577 215.506C190.425 213.968 191.218 211.128 193.372 211.054Z" fill="#0E0E0E"/>
<path fill-rule="evenodd" clip-rule="evenodd" d="M258.543 27.1524C261.058 26.5029 261.661 32.4335 260.194 33.0872C258.14 34.002 258.398 28.1444 258.543 27.1524Z" fill="#0E0E0E"/>
<path fill-rule="evenodd" clip-rule="evenodd" d="M417.647 328.444C415.312 328.307 412.042 327.67 415.578 326.013C417.822 324.964 421.158 324.891 423.527 325.321C425.16 325.618 427.61 326.972 425.118 328.727C423.66 329.753 419.42 328.494 417.647 328.444Z" fill="#0E0E0E"/>
<path fill-rule="evenodd" clip-rule="evenodd" d="M415.03 332.675C414.355 332.599 413.681 332.523 413.007 332.448C413.548 331.465 415.121 331.259 415.03 332.675Z" fill="#0E0E0E"/>
<path fill-rule="evenodd" clip-rule="evenodd" d="M418.075 328.346C418.752 328.361 419.43 328.376 420.102 328.39C419.422 328.375 418.748 328.361 418.075 328.346Z" fill="#0E0E0E"/>
</svg>
